<svg id="Layer_1" data-name="Layer 1" xmlns="http://www.w3.org/2000/svg" viewBox="0 0 732.67 253.81"><defs><style>.cls-1,.cls-2{fill:red;}.cls-2{stroke:red;stroke-miterlimit:10;stroke-width:3px;}.cls-3{fill:#4d4d4d;}</style></defs><rect y="0.05" width="56.69" height="198.43"/><rect class="cls-1" x="66.09" y="78" width="42.52" height="42.52"/><rect x="117" y="0.05" width="56.69" height="94.96"/><rect x="117" y="103.51" width="56.69" height="94.96"/><rect x="182.24" y="78" width="70.87" height="42.52"/><rect x="182.24" width="99.21" height="42.52"/><path class="cls-2" d="M550,534.41a33.24,33.24,0,0,1,15.55,3.53,25.15,25.15,0,0,1,10.69,10.77q3.91,7.24,3.91,18.58v42.53H558.74V570.6q0-9-3.7-13.26t-10.42-4.28a16.36,16.36,0,0,0-8.36,2.14,14.35,14.35,0,0,0-5.76,6.42,25.25,25.25,0,0,0-2,10.91v37.29H507.06V570.6q0-9-3.63-13.26t-10.35-4.28a16.38,16.38,0,0,0-8.36,2.14,14.39,14.39,0,0,0-5.75,6.42,25.1,25.1,0,0,0-2.06,10.91v37.29H455.53v-74.3H476v20.3l-3.84-5.94A26.51,26.51,0,0,1,483,538.35a32.52,32.52,0,0,1,16.1-3.94,30.77,30.77,0,0,1,17.75,5.18q7.62,5.19,10.08,15.82l-7.54-2.07a29.68,29.68,0,0,1,11.86-13.82A34.53,34.53,0,0,1,550,534.41Z" transform="translate(-170.63 -410.99)"/><path class="cls-2" d="M638.85,610.93a47.24,47.24,0,0,1-22.14-5A36.48,36.48,0,0,1,602,592.35a37.25,37.25,0,0,1-5.21-19.68,38,38,0,0,1,5.14-19.82A36.54,36.54,0,0,1,616,539.32a43.66,43.66,0,0,1,39.68-.28,34.56,34.56,0,0,1,13.77,13.26q5.07,8.63,5.07,20.65c0,.83,0,1.77-.13,2.83s-.19,2.05-.28,3h-59.9V566.18h48.66l-8.22,3.73a20.79,20.79,0,0,0-2.33-10.08,17.09,17.09,0,0,0-6.44-6.7,18.6,18.6,0,0,0-9.6-2.42,19,19,0,0,0-9.66,2.42,16.78,16.78,0,0,0-6.51,6.77,21.42,21.42,0,0,0-2.33,10.29v3.31a21,21,0,0,0,2.67,10.7,17.43,17.43,0,0,0,7.54,7,25.44,25.44,0,0,0,11.44,2.42,27.49,27.49,0,0,0,10.35-1.8,25.2,25.2,0,0,0,8.16-5.39l11.37,12.43a33.11,33.11,0,0,1-12.74,8.91A46.88,46.88,0,0,1,638.85,610.93Z" transform="translate(-170.63 -410.99)"/><path class="cls-2" d="M728,610.93a37.25,37.25,0,0,1-18.78-4.77A34.74,34.74,0,0,1,696,592.84q-4.87-8.57-4.87-20.17t4.87-20.3a34.31,34.31,0,0,1,13.22-13.26,37.72,37.72,0,0,1,18.78-4.7,31.32,31.32,0,0,1,16.31,4.15,27.15,27.15,0,0,1,10.83,12.57q3.84,8.42,3.84,21.54t-3.7,21.48a26.56,26.56,0,0,1-10.63,12.64Q737.73,610.93,728,610.93Zm3.7-17.68a18.37,18.37,0,0,0,9.46-2.49,18,18,0,0,0,6.78-7.11,25.15,25.15,0,0,0,0-22,18.11,18.11,0,0,0-16.24-9.53,18.61,18.61,0,0,0-9.59,2.49,18.19,18.19,0,0,0-6.79,7,25.24,25.24,0,0,0,0,22,18,18,0,0,0,6.79,7.11A18.61,18.61,0,0,0,731.7,593.25ZM751,609.82V594.63l.41-22.1-1.37-22V507.34h21.38V609.82Z" transform="translate(-170.63 -410.99)"/><path class="cls-2" d="M801.4,525.16a13.51,13.51,0,0,1-9.6-3.45,11.76,11.76,0,0,1,0-17.13,13.51,13.51,0,0,1,9.6-3.45,14,14,0,0,1,9.59,3.24,10.61,10.61,0,0,1,3.7,8.36,11.89,11.89,0,0,1-3.63,8.91A13.29,13.29,0,0,1,801.4,525.16Zm-10.7,84.66v-74.3h21.39v74.3Z" transform="translate(-170.63 -410.99)"/><path class="cls-2" d="M858.89,610.93a33.9,33.9,0,0,1-14.81-3,22.49,22.49,0,0,1-9.45-8.08,22,22,0,0,1-.07-23.06q3.21-5,10.21-7.81T863,566.18h19.6v12.57H865.33q-7.55,0-10.35,2.48a8,8,0,0,0-2.81,6.22,7.76,7.76,0,0,0,3.22,6.56q3.23,2.41,8.84,2.42a18.22,18.22,0,0,0,9.6-2.56,14.62,14.62,0,0,0,6.17-7.52l3.29,9.94a19.25,19.25,0,0,1-8.5,10.91Q868.63,610.94,858.89,610.93Zm22.48-1.11v-14.5L880,592.15v-26q0-6.9-4.18-10.77T863,551.54a37,37,0,0,0-11.58,1.86,30.62,30.62,0,0,0-9.67,5.05l-7.67-15.06a46.23,46.23,0,0,1,14.53-6.63,64.73,64.73,0,0,1,17.27-2.35q16.86,0,26.18,8t9.32,25v42.4Z" transform="translate(-170.63 -410.99)"/><path class="cls-3" d="M173.22,659.92H171V635.35h2.22Zm13.35-11.34H173V646.3h13.59Zm-.21-13.23h2.19v24.57h-2.19Z" transform="translate(-170.63 -410.99)"/><path class="cls-3" d="M198.48,659.92V635.35h2.22v24.57Z" transform="translate(-170.63 -410.99)"/><path class="cls-3" d="M219.84,660.13a10.37,10.37,0,0,1-7.93-3.54,12.3,12.3,0,0,1-2.31-4,15.39,15.39,0,0,1,0-10,12,12,0,0,1,2.32-4,10.42,10.42,0,0,1,8-3.55,10.74,10.74,0,0,1,4.4.88,8.69,8.69,0,0,1,3.4,2.67l-1.38,1.64a8,8,0,0,0-2.91-2.21,8.83,8.83,0,0,0-3.42-.66,8.32,8.32,0,0,0-6.43,2.89,10.18,10.18,0,0,0-1.89,3.23,12.37,12.37,0,0,0,0,8.09,10.07,10.07,0,0,0,1.89,3.25,8.5,8.5,0,0,0,2.85,2.14,8.4,8.4,0,0,0,3.55.75,9.26,9.26,0,0,0,3.41-.63,7.76,7.76,0,0,0,2.95-2.14l1.26,2a9.77,9.77,0,0,1-3.51,2.33A11.31,11.31,0,0,1,219.84,660.13Zm5.58-3.44v-9.05h2.13V657Z" transform="translate(-170.63 -410.99)"/><path class="cls-3" d="M239.13,659.92h-2.22V635.35h2.22Zm13.35-11.34H238.89V646.3h13.59Zm-.21-13.23h2.19v24.57h-2.19Z" transform="translate(-170.63 -410.99)"/><path class="cls-3" d="M277.56,659.92h-2.22V635.35h14.4v2.25H277.56Zm-.24-12.67h11.1v2.25h-11.1Z" transform="translate(-170.63 -410.99)"/><path class="cls-3" d="M297.42,659.92V635.35h7.86a9.78,9.78,0,0,1,4.59,1,7,7,0,0,1,3,2.88,9.29,9.29,0,0,1,1,4.54,9.13,9.13,0,0,1-1,4.48,7,7,0,0,1-3,2.88,9.9,9.9,0,0,1-4.59,1h-6.63l1-1.19v9Zm2.22-8.77-1-1.23h6.57A6.53,6.53,0,0,0,310,648.3a6.06,6.06,0,0,0,1.63-4.53,6.13,6.13,0,0,0-1.63-4.56,6.57,6.57,0,0,0-4.79-1.61h-6.57l1-1.23Zm12.12,8.77-5.4-8.91h2.4l5.43,8.91Z" transform="translate(-170.63 -410.99)"/><path class="cls-3" d="M324.42,657.67h12.63v2.25H322.2V635.35h14.4v2.25H324.42Zm-.24-11.33h11.1v2.21h-11.1Z" transform="translate(-170.63 -410.99)"/><path class="cls-3" d="M354.48,660.13a10.3,10.3,0,0,1-7.9-3.56,12.52,12.52,0,0,1-2.31-4,15.27,15.27,0,0,1,0-9.93,12.52,12.52,0,0,1,2.31-4,10.22,10.22,0,0,1,7.9-3.56,10.3,10.3,0,0,1,4.38.93,10.43,10.43,0,0,1,3.5,2.62,12.15,12.15,0,0,1,2.31,4,15.56,15.56,0,0,1,0,10,12.3,12.3,0,0,1-2.31,4,10.53,10.53,0,0,1-3.5,2.61A10.3,10.3,0,0,1,354.48,660.13Zm0-2.32a8.17,8.17,0,0,0,3.5-.75,8.09,8.09,0,0,0,2.79-2.16,10.42,10.42,0,0,0,1.84-3.24,12.69,12.69,0,0,0,0-8.08,10.26,10.26,0,0,0-1.84-3.23,8.28,8.28,0,0,0-2.79-2.14,8.27,8.27,0,0,0-9.81,2.14,10.5,10.5,0,0,0-1.86,3.23,12.34,12.34,0,0,0,0,8.08,10.67,10.67,0,0,0,1.86,3.24,8,8,0,0,0,2.8,2.16A8.25,8.25,0,0,0,354.48,657.81Zm6.87,7a6.12,6.12,0,0,1-1.86-.28,7.1,7.1,0,0,1-1.81-.9A12.33,12.33,0,0,1,355.8,662c-.64-.66-1.34-1.45-2.1-2.39l2.43-.7a15.3,15.3,0,0,0,1.82,2.14,6.85,6.85,0,0,0,1.74,1.25,4.05,4.05,0,0,0,1.69.4,4.84,4.84,0,0,0,4-2.25l1.08,1.51A6,6,0,0,1,361.35,664.8Z" transform="translate(-170.63 -410.99)"/><path class="cls-3" d="M382,660.13a7.89,7.89,0,0,1-6.33-2.7q-2.31-2.7-2.31-8V635.35h2.22v14q0,4.35,1.68,6.42a6.5,6.5,0,0,0,9.51,0q1.68-2.07,1.68-6.42v-14h2.16v14.08q0,5.3-2.29,8A7.86,7.86,0,0,1,382,660.13Z" transform="translate(-170.63 -410.99)"/><path class="cls-3" d="M402.63,657.67h12.63v2.25H400.41V635.35h14.4v2.25H402.63Zm-.24-11.33h11.1v2.21h-11.1Z" transform="translate(-170.63 -410.99)"/><path class="cls-3" d="M423.57,659.92V635.35h1.83l14.49,21.34h-1V635.35h2.19v24.57h-1.83l-14.46-21.34h1v21.34Z" transform="translate(-170.63 -410.99)"/><path class="cls-3" d="M460.17,660.13a10.24,10.24,0,0,1-7.86-3.54,12.44,12.44,0,0,1-2.29-4,15.39,15.39,0,0,1,0-10,12.15,12.15,0,0,1,2.31-4A10.55,10.55,0,0,1,464.49,636a8.65,8.65,0,0,1,3.39,2.68l-1.41,1.65a7.89,7.89,0,0,0-2.85-2.23,8.61,8.61,0,0,0-6.87.07,8.39,8.39,0,0,0-2.82,2.14,10.33,10.33,0,0,0-1.87,3.23,12.43,12.43,0,0,0,0,8.11,10.22,10.22,0,0,0,1.87,3.23,8.39,8.39,0,0,0,2.82,2.14,8.25,8.25,0,0,0,3.51.75,8.06,8.06,0,0,0,3.36-.7,7.92,7.92,0,0,0,2.85-2.24l1.41,1.65a8.89,8.89,0,0,1-3.39,2.7A10.3,10.3,0,0,1,460.17,660.13Z" transform="translate(-170.63 -410.99)"/><path class="cls-3" d="M480.27,659.92v-9.13l.51,1.62-8.91-17.06h2.37l7.83,15h-1.26l7.83-15h2.22L482,652.41l.51-1.62v9.13Z" transform="translate(-170.63 -410.99)"/><path class="cls-3" d="M505,659.92l9.6-24.57h2.19l9.6,24.57H524l-8.82-23.06h.9l-8.82,23.06Zm3.78-6.56.66-2.11h12.21l.66,2.11Z" transform="translate(-170.63 -410.99)"/><path class="cls-3" d="M533,659.92V635.35h8.55a11,11,0,0,1,5.9,1.56,10.69,10.69,0,0,1,3.94,4.34,15.16,15.16,0,0,1,0,12.77,10.69,10.69,0,0,1-3.94,4.34,11,11,0,0,1-5.9,1.56Zm2.22-2.25h6.21a8.88,8.88,0,0,0,4.84-1.28,8.65,8.65,0,0,0,3.2-3.54,12.52,12.52,0,0,0,0-10.44,8.68,8.68,0,0,0-3.2-3.53,8.88,8.88,0,0,0-4.84-1.28h-6.21Z" transform="translate(-170.63 -410.99)"/><path class="cls-3" d="M566.16,659.92l-9.3-24.57h2.4l8.7,23.13h-1.32l8.76-23.13h2.25l-9.3,24.57Z" transform="translate(-170.63 -410.99)"/><path class="cls-3" d="M586,657.67h12.63v2.25H583.77V635.35h14.4v2.25H586Zm-.24-11.33h11.1v2.21h-11.1Z" transform="translate(-170.63 -410.99)"/><path class="cls-3" d="M606.93,659.92V635.35h7.86a9.78,9.78,0,0,1,4.59,1,7,7,0,0,1,3,2.88,9.29,9.29,0,0,1,1,4.54,9.13,9.13,0,0,1-1,4.48,7,7,0,0,1-3,2.88,9.9,9.9,0,0,1-4.59,1h-6.63l1-1.19v9Zm2.22-8.77-1-1.23h6.57a6.51,6.51,0,0,0,4.78-1.62,6.06,6.06,0,0,0,1.64-4.53,6.14,6.14,0,0,0-1.64-4.56,6.55,6.55,0,0,0-4.78-1.61h-6.57l1-1.23Zm12.12,8.77-5.4-8.91h2.4l5.43,8.91Z" transform="translate(-170.63 -410.99)"/><path class="cls-3" d="M635.49,659.92V637.6h-7.38v-2.25h17v2.25h-7.38v22.32Z" transform="translate(-170.63 -410.99)"/><path class="cls-3" d="M651.72,659.92V635.35h2.22v24.57Z" transform="translate(-170.63 -410.99)"/><path class="cls-3" d="M669.66,660.13a11.68,11.68,0,0,1-4.49-.89,8.52,8.52,0,0,1-3.31-2.3l.87-2a8.72,8.72,0,0,0,3,2.12,9.43,9.43,0,0,0,3.95.86,7.6,7.6,0,0,0,3.22-.58,4,4,0,0,0,1.83-1.56,4.19,4.19,0,0,0,.59-2.18,3.56,3.56,0,0,0-.71-2.31,4.8,4.8,0,0,0-1.84-1.39,18.48,18.48,0,0,0-2.52-.9c-.92-.25-1.84-.53-2.76-.82a10.35,10.35,0,0,1-2.54-1.18,5.67,5.67,0,0,1-1.86-1.94,6.3,6.3,0,0,1-.7-3.18,6.9,6.9,0,0,1,.82-3.35,6.1,6.1,0,0,1,2.54-2.46,9.12,9.12,0,0,1,4.38-.93,10.94,10.94,0,0,1,3.51.58,9.55,9.55,0,0,1,3,1.6l-.75,2.07a9.45,9.45,0,0,0-2.87-1.55,9.66,9.66,0,0,0-2.92-.49,7.11,7.11,0,0,0-3.12.6,4.15,4.15,0,0,0-1.82,1.59,4.43,4.43,0,0,0-.58,2.27,3.6,3.6,0,0,0,.7,2.32,4.76,4.76,0,0,0,1.86,1.37,20.92,20.92,0,0,0,2.54.87c.92.26,1.83.54,2.74.84a12.14,12.14,0,0,1,2.52,1.18,5.58,5.58,0,0,1,1.86,1.91,6.12,6.12,0,0,1,.71,3.13,6.73,6.73,0,0,1-.84,3.31,6.18,6.18,0,0,1-2.57,2.46A9.26,9.26,0,0,1,669.66,660.13Z" transform="translate(-170.63 -410.99)"/><path class="cls-3" d="M685.41,659.92V635.35h2.22v24.57Z" transform="translate(-170.63 -410.99)"/><path class="cls-3" d="M697.56,659.92V635.35h1.83l14.49,21.34h-1V635.35h2.19v24.57h-1.83l-14.46-21.34h1v21.34Z" transform="translate(-170.63 -410.99)"/><path class="cls-3" d="M734.25,660.13a10.37,10.37,0,0,1-7.94-3.54,12.3,12.3,0,0,1-2.31-4,15.56,15.56,0,0,1,0-10,12,12,0,0,1,2.33-4,10.38,10.38,0,0,1,7.95-3.55,10.69,10.69,0,0,1,4.39.88,8.72,8.72,0,0,1,3.41,2.67l-1.38,1.64a8,8,0,0,0-2.91-2.21,8.83,8.83,0,0,0-3.42-.66,8.32,8.32,0,0,0-6.44,2.89,10.18,10.18,0,0,0-1.89,3.23,12.55,12.55,0,0,0,0,8.09,10.07,10.07,0,0,0,1.89,3.25,8.32,8.32,0,0,0,6.41,2.89,9.21,9.21,0,0,0,3.4-.63,7.79,7.79,0,0,0,3-2.14l1.26,2a9.77,9.77,0,0,1-3.51,2.33A11.31,11.31,0,0,1,734.25,660.13Zm5.58-3.44v-9.05H742V657Z" transform="translate(-170.63 -410.99)"/><path class="cls-3" d="M758.91,659.92l9.6-24.57h2.19l9.6,24.57H778l-8.82-23.06h.9l-8.82,23.06Zm3.78-6.56.66-2.11h12.21l.66,2.11Z" transform="translate(-170.63 -410.99)"/><path class="cls-3" d="M795.78,660.13a10.37,10.37,0,0,1-7.94-3.54,12.3,12.3,0,0,1-2.31-4,15.56,15.56,0,0,1,0-10,12,12,0,0,1,2.33-4,10.38,10.38,0,0,1,7.95-3.55,10.69,10.69,0,0,1,4.39.88,8.72,8.72,0,0,1,3.41,2.67l-1.38,1.64a8,8,0,0,0-2.91-2.21,8.83,8.83,0,0,0-3.42-.66,8.32,8.32,0,0,0-6.44,2.89,10.18,10.18,0,0,0-1.89,3.23,12.55,12.55,0,0,0,0,8.09,10.07,10.07,0,0,0,1.89,3.25,8.32,8.32,0,0,0,6.41,2.89,9.21,9.21,0,0,0,3.4-.63,7.79,7.79,0,0,0,3-2.14l1.26,2a9.77,9.77,0,0,1-3.51,2.33A11.31,11.31,0,0,1,795.78,660.13Zm5.58-3.44v-9.05h2.13V657Z" transform="translate(-170.63 -410.99)"/><path class="cls-3" d="M815.07,657.67H827.7v2.25H812.85V635.35h14.4v2.25H815.07Zm-.24-11.33h11.1v2.21h-11.1Z" transform="translate(-170.63 -410.99)"/><path class="cls-3" d="M836,659.92V635.35h1.83l14.49,21.34h-1V635.35h2.19v24.57h-1.83l-14.46-21.34h1v21.34Z" transform="translate(-170.63 -410.99)"/><path class="cls-3" d="M872.61,660.13a10.24,10.24,0,0,1-7.86-3.54,12.46,12.46,0,0,1-2.3-4,15.56,15.56,0,0,1,0-10,12.15,12.15,0,0,1,2.31-4,10.43,10.43,0,0,1,3.5-2.62,10.73,10.73,0,0,1,8.67,0,8.65,8.65,0,0,1,3.39,2.68l-1.41,1.65a7.89,7.89,0,0,0-2.85-2.23,8.61,8.61,0,0,0-6.87.07,8.39,8.39,0,0,0-2.82,2.14,10.35,10.35,0,0,0-1.88,3.23,12.61,12.61,0,0,0,0,8.11,10.24,10.24,0,0,0,1.88,3.23,8.39,8.39,0,0,0,2.82,2.14,8.25,8.25,0,0,0,3.51.75,8.06,8.06,0,0,0,3.36-.7,7.92,7.92,0,0,0,2.85-2.24l1.41,1.65a8.89,8.89,0,0,1-3.39,2.7A10.3,10.3,0,0,1,872.61,660.13Z" transform="translate(-170.63 -410.99)"/><path class="cls-3" d="M892.71,659.92v-9.13l.51,1.62-8.91-17.06h2.37l7.83,15h-1.26l7.83-15h2.22l-8.91,17.06.51-1.62v9.13Z" transform="translate(-170.63 -410.99)"/></svg>